<mxfile host="app.diagrams.net" agent="Mozilla/5.0 (Windows NT 10.0; Win64; x64) AppleWebKit/537.36 (KHTML, like Gecko) Chrome/135.0.0.0 Safari/537.36" version="26.2.14">
  <diagram name="PÃ¡gina-1" id="iiFLix8vtbjAYV10xj-D">
    <mxGraphModel dx="635" dy="338" grid="1" gridSize="10" guides="1" tooltips="1" connect="1" arrows="1" fold="1" page="1" pageScale="1" pageWidth="827" pageHeight="1169" math="0" shadow="0">
      <root>
        <mxCell id="0" />
        <mxCell id="1" parent="0" />
        <mxCell id="df8ohECk0AC6mTHxCb6P-64" style="edgeStyle=orthogonalEdgeStyle;rounded=0;orthogonalLoop=1;jettySize=auto;html=1;entryX=0;entryY=0.5;entryDx=0;entryDy=0;endArrow=oval;endFill=1;" parent="1" source="df8ohECk0AC6mTHxCb6P-27" target="df8ohECk0AC6mTHxCb6P-32" edge="1">
          <mxGeometry relative="1" as="geometry" />
        </mxCell>
        <mxCell id="df8ohECk0AC6mTHxCb6P-65" style="edgeStyle=orthogonalEdgeStyle;rounded=0;orthogonalLoop=1;jettySize=auto;html=1;entryX=0;entryY=0.5;entryDx=0;entryDy=0;endArrow=oval;endFill=1;" parent="1" source="df8ohECk0AC6mTHxCb6P-27" target="df8ohECk0AC6mTHxCb6P-31" edge="1">
          <mxGeometry relative="1" as="geometry" />
        </mxCell>
        <mxCell id="pLmFwJJWqdHGHhaTxQZ2-7" style="edgeStyle=orthogonalEdgeStyle;rounded=0;orthogonalLoop=1;jettySize=auto;html=1;entryX=0.5;entryY=1;entryDx=0;entryDy=0;endArrow=oval;endFill=1;" parent="1" source="df8ohECk0AC6mTHxCb6P-27" target="pLmFwJJWqdHGHhaTxQZ2-3" edge="1">
          <mxGeometry relative="1" as="geometry" />
        </mxCell>
        <mxCell id="df8ohECk0AC6mTHxCb6P-27" value="usuarios/admins" style="rounded=0;whiteSpace=wrap;html=1;" parent="1" vertex="1">
          <mxGeometry x="120" y="910" width="120" height="60" as="geometry" />
        </mxCell>
        <mxCell id="df8ohECk0AC6mTHxCb6P-28" value="&lt;font size=&quot;1&quot;&gt;carrito_producto&lt;/font&gt;" style="rounded=0;whiteSpace=wrap;html=1;" parent="1" vertex="1">
          <mxGeometry x="500" y="1020" width="90" height="40" as="geometry" />
        </mxCell>
        <mxCell id="df8ohECk0AC6mTHxCb6P-29" value="&lt;font style=&quot;font-size: 9px;&quot;&gt;pedido_detalle&lt;/font&gt;" style="rounded=0;whiteSpace=wrap;html=1;" parent="1" vertex="1">
          <mxGeometry x="500" y="1110" width="90" height="40" as="geometry" />
        </mxCell>
        <mxCell id="df8ohECk0AC6mTHxCb6P-30" value="SECURITY&lt;br&gt;IDENTITY" style="rounded=0;whiteSpace=wrap;html=1;" parent="1" vertex="1">
          <mxGeometry x="320" y="1200" width="120" height="60" as="geometry" />
        </mxCell>
        <mxCell id="df8ohECk0AC6mTHxCb6P-66" style="edgeStyle=orthogonalEdgeStyle;rounded=0;orthogonalLoop=1;jettySize=auto;html=1;entryX=0;entryY=0.5;entryDx=0;entryDy=0;endArrow=oval;endFill=1;" parent="1" source="df8ohECk0AC6mTHxCb6P-31" target="df8ohECk0AC6mTHxCb6P-29" edge="1">
          <mxGeometry relative="1" as="geometry" />
        </mxCell>
        <mxCell id="df8ohECk0AC6mTHxCb6P-31" value="pedidos" style="rounded=0;whiteSpace=wrap;html=1;" parent="1" vertex="1">
          <mxGeometry x="320" y="1100" width="120" height="60" as="geometry" />
        </mxCell>
        <mxCell id="df8ohECk0AC6mTHxCb6P-67" style="edgeStyle=orthogonalEdgeStyle;rounded=0;orthogonalLoop=1;jettySize=auto;html=1;endArrow=oval;endFill=1;" parent="1" source="df8ohECk0AC6mTHxCb6P-32" target="df8ohECk0AC6mTHxCb6P-28" edge="1">
          <mxGeometry relative="1" as="geometry" />
        </mxCell>
        <mxCell id="df8ohECk0AC6mTHxCb6P-32" value="carrito" style="rounded=0;whiteSpace=wrap;html=1;" parent="1" vertex="1">
          <mxGeometry x="320" y="1010" width="120" height="60" as="geometry" />
        </mxCell>
        <mxCell id="df8ohECk0AC6mTHxCb6P-50" style="edgeStyle=orthogonalEdgeStyle;rounded=0;orthogonalLoop=1;jettySize=auto;html=1;entryX=0;entryY=0.5;entryDx=0;entryDy=0;endArrow=oval;endFill=1;" parent="1" source="df8ohECk0AC6mTHxCb6P-34" target="df8ohECk0AC6mTHxCb6P-49" edge="1">
          <mxGeometry relative="1" as="geometry" />
        </mxCell>
        <mxCell id="df8ohECk0AC6mTHxCb6P-68" style="edgeStyle=orthogonalEdgeStyle;rounded=0;orthogonalLoop=1;jettySize=auto;html=1;entryX=1;entryY=0.5;entryDx=0;entryDy=0;endArrow=oval;endFill=1;" parent="1" source="df8ohECk0AC6mTHxCb6P-34" target="df8ohECk0AC6mTHxCb6P-28" edge="1">
          <mxGeometry relative="1" as="geometry" />
        </mxCell>
        <mxCell id="df8ohECk0AC6mTHxCb6P-69" style="edgeStyle=orthogonalEdgeStyle;rounded=0;orthogonalLoop=1;jettySize=auto;html=1;endArrow=oval;endFill=1;" parent="1" source="df8ohECk0AC6mTHxCb6P-34" target="df8ohECk0AC6mTHxCb6P-29" edge="1">
          <mxGeometry relative="1" as="geometry" />
        </mxCell>
        <mxCell id="df8ohECk0AC6mTHxCb6P-80" style="edgeStyle=orthogonalEdgeStyle;rounded=0;orthogonalLoop=1;jettySize=auto;html=1;entryX=0.5;entryY=0;entryDx=0;entryDy=0;endArrow=oval;endFill=1;" parent="1" source="df8ohECk0AC6mTHxCb6P-34" target="df8ohECk0AC6mTHxCb6P-79" edge="1">
          <mxGeometry relative="1" as="geometry" />
        </mxCell>
        <mxCell id="df8ohECk0AC6mTHxCb6P-34" value="productos" style="rounded=0;whiteSpace=wrap;html=1;" parent="1" vertex="1">
          <mxGeometry x="670" y="1060" width="120" height="60" as="geometry" />
        </mxCell>
        <mxCell id="0mdIh17T59S8xCSfEjK5-1" style="edgeStyle=orthogonalEdgeStyle;rounded=0;orthogonalLoop=1;jettySize=auto;html=1;entryX=1;entryY=0.25;entryDx=0;entryDy=0;endArrow=oval;endFill=1;" parent="1" source="df8ohECk0AC6mTHxCb6P-35" target="df8ohECk0AC6mTHxCb6P-27" edge="1">
          <mxGeometry relative="1" as="geometry" />
        </mxCell>
        <mxCell id="df8ohECk0AC6mTHxCb6P-35" value="comentarios" style="rounded=0;whiteSpace=wrap;html=1;" parent="1" vertex="1">
          <mxGeometry x="840" y="960" width="120" height="60" as="geometry" />
        </mxCell>
        <mxCell id="df8ohECk0AC6mTHxCb6P-51" style="edgeStyle=orthogonalEdgeStyle;rounded=0;orthogonalLoop=1;jettySize=auto;html=1;entryX=1;entryY=0.5;entryDx=0;entryDy=0;endArrow=oval;endFill=1;" parent="1" source="df8ohECk0AC6mTHxCb6P-36" target="df8ohECk0AC6mTHxCb6P-49" edge="1">
          <mxGeometry relative="1" as="geometry" />
        </mxCell>
        <mxCell id="df8ohECk0AC6mTHxCb6P-36" value="plataformas" style="rounded=0;whiteSpace=wrap;html=1;" parent="1" vertex="1">
          <mxGeometry x="1020" y="1060" width="120" height="60" as="geometry" />
        </mxCell>
        <mxCell id="df8ohECk0AC6mTHxCb6P-37" value="marcas" style="rounded=0;whiteSpace=wrap;html=1;" parent="1" vertex="1">
          <mxGeometry x="840" y="1160" width="120" height="60" as="geometry" />
        </mxCell>
        <mxCell id="df8ohECk0AC6mTHxCb6P-40" style="edgeStyle=orthogonalEdgeStyle;rounded=0;orthogonalLoop=1;jettySize=auto;html=1;entryX=0;entryY=0.712;entryDx=0;entryDy=0;entryPerimeter=0;endArrow=oval;endFill=1;" parent="1" source="df8ohECk0AC6mTHxCb6P-27" target="df8ohECk0AC6mTHxCb6P-30" edge="1">
          <mxGeometry relative="1" as="geometry" />
        </mxCell>
        <mxCell id="df8ohECk0AC6mTHxCb6P-46" style="edgeStyle=orthogonalEdgeStyle;rounded=0;orthogonalLoop=1;jettySize=auto;html=1;entryX=-0.006;entryY=0.446;entryDx=0;entryDy=0;entryPerimeter=0;endArrow=oval;endFill=1;" parent="1" source="df8ohECk0AC6mTHxCb6P-34" target="df8ohECk0AC6mTHxCb6P-35" edge="1">
          <mxGeometry relative="1" as="geometry" />
        </mxCell>
        <mxCell id="df8ohECk0AC6mTHxCb6P-47" style="edgeStyle=orthogonalEdgeStyle;rounded=0;orthogonalLoop=1;jettySize=auto;html=1;entryX=0;entryY=0.833;entryDx=0;entryDy=0;entryPerimeter=0;endArrow=oval;endFill=1;" parent="1" source="df8ohECk0AC6mTHxCb6P-34" target="df8ohECk0AC6mTHxCb6P-37" edge="1">
          <mxGeometry relative="1" as="geometry" />
        </mxCell>
        <mxCell id="df8ohECk0AC6mTHxCb6P-49" value="&lt;font style=&quot;font-size: 9px;&quot;&gt;product/plataform&lt;/font&gt;" style="rounded=0;whiteSpace=wrap;html=1;" parent="1" vertex="1">
          <mxGeometry x="870" y="1070" width="90" height="40" as="geometry" />
        </mxCell>
        <mxCell id="df8ohECk0AC6mTHxCb6P-58" value="n" style="text;html=1;align=center;verticalAlign=middle;resizable=0;points=[];autosize=1;strokeColor=none;fillColor=none;" parent="1" vertex="1">
          <mxGeometry x="300" y="1220" width="30" height="30" as="geometry" />
        </mxCell>
        <mxCell id="df8ohECk0AC6mTHxCb6P-59" value="n" style="text;html=1;align=center;verticalAlign=middle;resizable=0;points=[];autosize=1;strokeColor=none;fillColor=none;" parent="1" vertex="1">
          <mxGeometry x="815" y="980" width="30" height="30" as="geometry" />
        </mxCell>
        <mxCell id="df8ohECk0AC6mTHxCb6P-60" value="n" style="text;html=1;align=center;verticalAlign=middle;resizable=0;points=[];autosize=1;strokeColor=none;fillColor=none;" parent="1" vertex="1">
          <mxGeometry x="850" y="1060" width="30" height="30" as="geometry" />
        </mxCell>
        <mxCell id="df8ohECk0AC6mTHxCb6P-61" value="n;0" style="text;html=1;align=center;verticalAlign=middle;resizable=0;points=[];autosize=1;strokeColor=none;fillColor=none;" parent="1" vertex="1">
          <mxGeometry x="810" y="1180" width="40" height="30" as="geometry" />
        </mxCell>
        <mxCell id="df8ohECk0AC6mTHxCb6P-62" value="n" style="text;html=1;align=center;verticalAlign=middle;resizable=0;points=[];autosize=1;strokeColor=none;fillColor=none;" parent="1" vertex="1">
          <mxGeometry x="950" y="1060" width="30" height="30" as="geometry" />
        </mxCell>
        <mxCell id="df8ohECk0AC6mTHxCb6P-70" value="n" style="text;html=1;align=center;verticalAlign=middle;resizable=0;points=[];autosize=1;strokeColor=none;fillColor=none;" parent="1" vertex="1">
          <mxGeometry x="300" y="1100" width="30" height="30" as="geometry" />
        </mxCell>
        <mxCell id="df8ohECk0AC6mTHxCb6P-71" value="1;1" style="text;html=1;align=center;verticalAlign=middle;resizable=0;points=[];autosize=1;strokeColor=none;fillColor=none;" parent="1" vertex="1">
          <mxGeometry x="280" y="1040" width="40" height="30" as="geometry" />
        </mxCell>
        <mxCell id="df8ohECk0AC6mTHxCb6P-72" value="n" style="text;html=1;align=center;verticalAlign=middle;resizable=0;points=[];autosize=1;strokeColor=none;fillColor=none;" parent="1" vertex="1">
          <mxGeometry x="580" y="1030" width="30" height="30" as="geometry" />
        </mxCell>
        <mxCell id="df8ohECk0AC6mTHxCb6P-73" value="n" style="text;html=1;align=center;verticalAlign=middle;resizable=0;points=[];autosize=1;strokeColor=none;fillColor=none;" parent="1" vertex="1">
          <mxGeometry x="580" y="1100" width="30" height="30" as="geometry" />
        </mxCell>
        <mxCell id="df8ohECk0AC6mTHxCb6P-74" value="n" style="text;html=1;align=center;verticalAlign=middle;resizable=0;points=[];autosize=1;strokeColor=none;fillColor=none;" parent="1" vertex="1">
          <mxGeometry x="480" y="1030" width="30" height="30" as="geometry" />
        </mxCell>
        <mxCell id="df8ohECk0AC6mTHxCb6P-75" value="n" style="text;html=1;align=center;verticalAlign=middle;resizable=0;points=[];autosize=1;strokeColor=none;fillColor=none;" parent="1" vertex="1">
          <mxGeometry x="480" y="1100" width="30" height="30" as="geometry" />
        </mxCell>
        <mxCell id="df8ohECk0AC6mTHxCb6P-76" value="N;M" style="text;html=1;align=center;verticalAlign=middle;resizable=0;points=[];autosize=1;strokeColor=none;fillColor=none;" parent="1" vertex="1">
          <mxGeometry x="515" y="990" width="50" height="30" as="geometry" />
        </mxCell>
        <mxCell id="df8ohECk0AC6mTHxCb6P-77" value="N;M" style="text;html=1;align=center;verticalAlign=middle;resizable=0;points=[];autosize=1;strokeColor=none;fillColor=none;" parent="1" vertex="1">
          <mxGeometry x="515" y="1080" width="50" height="30" as="geometry" />
        </mxCell>
        <mxCell id="df8ohECk0AC6mTHxCb6P-78" value="N;M" style="text;html=1;align=center;verticalAlign=middle;resizable=0;points=[];autosize=1;strokeColor=none;fillColor=none;" parent="1" vertex="1">
          <mxGeometry x="890" y="1040" width="50" height="30" as="geometry" />
        </mxCell>
        <mxCell id="df8ohECk0AC6mTHxCb6P-79" value="precio" style="rounded=0;whiteSpace=wrap;html=1;" parent="1" vertex="1">
          <mxGeometry x="670" y="1190" width="120" height="60" as="geometry" />
        </mxCell>
        <mxCell id="df8ohECk0AC6mTHxCb6P-86" style="edgeStyle=orthogonalEdgeStyle;rounded=0;orthogonalLoop=1;jettySize=auto;html=1;entryX=0.5;entryY=0;entryDx=0;entryDy=0;endArrow=oval;endFill=1;" parent="1" source="df8ohECk0AC6mTHxCb6P-81" target="df8ohECk0AC6mTHxCb6P-34" edge="1">
          <mxGeometry relative="1" as="geometry" />
        </mxCell>
        <mxCell id="df8ohECk0AC6mTHxCb6P-81" value="tipos productos" style="rounded=0;whiteSpace=wrap;html=1;" parent="1" vertex="1">
          <mxGeometry x="670" y="850" width="120" height="60" as="geometry" />
        </mxCell>
        <mxCell id="df8ohECk0AC6mTHxCb6P-84" value="n" style="text;html=1;align=center;verticalAlign=middle;resizable=0;points=[];autosize=1;strokeColor=none;fillColor=none;" parent="1" vertex="1">
          <mxGeometry x="725" y="1030" width="30" height="30" as="geometry" />
        </mxCell>
        <mxCell id="df8ohECk0AC6mTHxCb6P-85" value="n" style="text;html=1;align=center;verticalAlign=middle;resizable=0;points=[];autosize=1;strokeColor=none;fillColor=none;" parent="1" vertex="1">
          <mxGeometry x="725" y="1160" width="30" height="30" as="geometry" />
        </mxCell>
        <mxCell id="pLmFwJJWqdHGHhaTxQZ2-3" value="historial" style="rounded=0;whiteSpace=wrap;html=1;" parent="1" vertex="1">
          <mxGeometry x="120" y="730" width="120" height="60" as="geometry" />
        </mxCell>
        <mxCell id="pLmFwJJWqdHGHhaTxQZ2-5" value="" style="endArrow=oval;html=1;rounded=0;entryX=1;entryY=0.5;entryDx=0;entryDy=0;endFill=1;" parent="1" target="pLmFwJJWqdHGHhaTxQZ2-3" edge="1">
          <mxGeometry width="50" height="50" relative="1" as="geometry">
            <mxPoint x="670" y="1060" as="sourcePoint" />
            <mxPoint x="720" y="1010" as="targetPoint" />
          </mxGeometry>
        </mxCell>
        <mxCell id="pLmFwJJWqdHGHhaTxQZ2-8" value="n" style="text;html=1;align=center;verticalAlign=middle;resizable=0;points=[];autosize=1;strokeColor=none;fillColor=none;" parent="1" vertex="1">
          <mxGeometry x="180" y="790" width="30" height="30" as="geometry" />
        </mxCell>
        <mxCell id="pLmFwJJWqdHGHhaTxQZ2-9" value="n" style="text;html=1;align=center;verticalAlign=middle;resizable=0;points=[];autosize=1;strokeColor=none;fillColor=none;" parent="1" vertex="1">
          <mxGeometry x="240" y="730" width="30" height="30" as="geometry" />
        </mxCell>
        <mxCell id="0mdIh17T59S8xCSfEjK5-2" value="n" style="text;html=1;align=center;verticalAlign=middle;resizable=0;points=[];autosize=1;strokeColor=none;fillColor=none;" parent="1" vertex="1">
          <mxGeometry x="240" y="900" width="30" height="30" as="geometry" />
        </mxCell>
      </root>
    </mxGraphModel>
  </diagram>
</mxfile>
